<mxfile host="app.diagrams.net" agent="Mozilla/5.0 (Windows NT 10.0; Win64; x64) AppleWebKit/537.36 (KHTML, like Gecko) Chrome/109.0.0.0 Safari/537.36 SLBrowser/9.0.3.5211 SLBChan/25" version="24.7.17">
  <diagram name="第 1 页" id="HA4UVDwD3Zuw-qyTp5fs">
    <mxGraphModel dx="2070" dy="1962" grid="1" gridSize="10" guides="1" tooltips="1" connect="1" arrows="1" fold="1" page="1" pageScale="1" pageWidth="827" pageHeight="1169" background="#ffffff" math="0" shadow="1">
      <root>
        <mxCell id="0" />
        <mxCell id="1" parent="0" />
        <mxCell id="MQWxd4llmsT6GIJLcgqH-2" value="&lt;font style=&quot;font-size: 22px;&quot;&gt;可转移的高隐蔽性的对抗样本攻击技术&lt;/font&gt;" style="swimlane;whiteSpace=wrap;html=1;movable=1;resizable=1;rotatable=1;deletable=1;editable=1;locked=0;connectable=1;" vertex="1" parent="1">
          <mxGeometry x="120" y="-380" width="600" height="650" as="geometry" />
        </mxCell>
        <mxCell id="MQWxd4llmsT6GIJLcgqH-11" style="edgeStyle=orthogonalEdgeStyle;rounded=0;orthogonalLoop=1;jettySize=auto;html=1;exitX=0.5;exitY=1;exitDx=0;exitDy=0;entryX=0.5;entryY=0;entryDx=0;entryDy=0;" edge="1" parent="MQWxd4llmsT6GIJLcgqH-2" source="MQWxd4llmsT6GIJLcgqH-4" target="MQWxd4llmsT6GIJLcgqH-5">
          <mxGeometry relative="1" as="geometry" />
        </mxCell>
        <mxCell id="MQWxd4llmsT6GIJLcgqH-4" value="&lt;b&gt;&lt;font style=&quot;font-size: 23px;&quot;&gt;目标识别&lt;/font&gt;&lt;/b&gt;" style="rounded=0;whiteSpace=wrap;html=1;" vertex="1" parent="MQWxd4llmsT6GIJLcgqH-2">
          <mxGeometry x="230" y="40" width="140" height="70" as="geometry" />
        </mxCell>
        <mxCell id="MQWxd4llmsT6GIJLcgqH-12" style="edgeStyle=orthogonalEdgeStyle;rounded=0;orthogonalLoop=1;jettySize=auto;html=1;exitX=0.5;exitY=1;exitDx=0;exitDy=0;entryX=0.5;entryY=0;entryDx=0;entryDy=0;" edge="1" parent="MQWxd4llmsT6GIJLcgqH-2" source="MQWxd4llmsT6GIJLcgqH-5" target="MQWxd4llmsT6GIJLcgqH-6">
          <mxGeometry relative="1" as="geometry" />
        </mxCell>
        <mxCell id="MQWxd4llmsT6GIJLcgqH-5" value="&lt;span style=&quot;font-size: 23px;&quot;&gt;&lt;b&gt;模型缺陷分析&lt;/b&gt;&lt;/span&gt;" style="rounded=0;whiteSpace=wrap;html=1;" vertex="1" parent="MQWxd4llmsT6GIJLcgqH-2">
          <mxGeometry x="220" y="140" width="160" height="70" as="geometry" />
        </mxCell>
        <mxCell id="MQWxd4llmsT6GIJLcgqH-13" style="rounded=0;orthogonalLoop=1;jettySize=auto;html=1;exitX=0.5;exitY=1;exitDx=0;exitDy=0;" edge="1" parent="MQWxd4llmsT6GIJLcgqH-2" source="MQWxd4llmsT6GIJLcgqH-6" target="MQWxd4llmsT6GIJLcgqH-7">
          <mxGeometry relative="1" as="geometry" />
        </mxCell>
        <mxCell id="MQWxd4llmsT6GIJLcgqH-15" style="rounded=0;orthogonalLoop=1;jettySize=auto;html=1;exitX=0.5;exitY=1;exitDx=0;exitDy=0;" edge="1" parent="MQWxd4llmsT6GIJLcgqH-2" source="MQWxd4llmsT6GIJLcgqH-6" target="MQWxd4llmsT6GIJLcgqH-8">
          <mxGeometry relative="1" as="geometry" />
        </mxCell>
        <mxCell id="MQWxd4llmsT6GIJLcgqH-6" value="&lt;span style=&quot;font-size: 23px;&quot;&gt;&lt;b&gt;对抗样本生成&lt;/b&gt;&lt;/span&gt;" style="rounded=0;whiteSpace=wrap;html=1;" vertex="1" parent="MQWxd4llmsT6GIJLcgqH-2">
          <mxGeometry x="220" y="240" width="160" height="70" as="geometry" />
        </mxCell>
        <mxCell id="MQWxd4llmsT6GIJLcgqH-16" style="rounded=0;orthogonalLoop=1;jettySize=auto;html=1;exitX=0.5;exitY=1;exitDx=0;exitDy=0;entryX=0.5;entryY=0;entryDx=0;entryDy=0;" edge="1" parent="MQWxd4llmsT6GIJLcgqH-2" source="MQWxd4llmsT6GIJLcgqH-7" target="MQWxd4llmsT6GIJLcgqH-9">
          <mxGeometry relative="1" as="geometry" />
        </mxCell>
        <mxCell id="MQWxd4llmsT6GIJLcgqH-7" value="&lt;span style=&quot;font-size: 23px;&quot;&gt;&lt;b&gt;提高可转移性&lt;/b&gt;&lt;/span&gt;" style="rounded=0;whiteSpace=wrap;html=1;" vertex="1" parent="MQWxd4llmsT6GIJLcgqH-2">
          <mxGeometry x="100" y="360" width="160" height="70" as="geometry" />
        </mxCell>
        <mxCell id="MQWxd4llmsT6GIJLcgqH-17" style="rounded=0;orthogonalLoop=1;jettySize=auto;html=1;exitX=0.5;exitY=1;exitDx=0;exitDy=0;entryX=0.5;entryY=0;entryDx=0;entryDy=0;" edge="1" parent="MQWxd4llmsT6GIJLcgqH-2" source="MQWxd4llmsT6GIJLcgqH-8" target="MQWxd4llmsT6GIJLcgqH-9">
          <mxGeometry relative="1" as="geometry">
            <mxPoint x="310" y="460" as="targetPoint" />
          </mxGeometry>
        </mxCell>
        <mxCell id="MQWxd4llmsT6GIJLcgqH-8" value="&lt;span style=&quot;font-size: 23px;&quot;&gt;&lt;b&gt;增强隐蔽性&lt;/b&gt;&lt;/span&gt;" style="rounded=0;whiteSpace=wrap;html=1;" vertex="1" parent="MQWxd4llmsT6GIJLcgqH-2">
          <mxGeometry x="360" y="360" width="160" height="70" as="geometry" />
        </mxCell>
        <mxCell id="MQWxd4llmsT6GIJLcgqH-18" style="edgeStyle=orthogonalEdgeStyle;rounded=0;orthogonalLoop=1;jettySize=auto;html=1;exitX=0.5;exitY=1;exitDx=0;exitDy=0;entryX=0.5;entryY=0;entryDx=0;entryDy=0;" edge="1" parent="MQWxd4llmsT6GIJLcgqH-2" source="MQWxd4llmsT6GIJLcgqH-9" target="MQWxd4llmsT6GIJLcgqH-10">
          <mxGeometry relative="1" as="geometry" />
        </mxCell>
        <mxCell id="MQWxd4llmsT6GIJLcgqH-9" value="&lt;span style=&quot;font-size: 23px;&quot;&gt;&lt;b&gt;攻击实施与评估&lt;/b&gt;&lt;/span&gt;" style="rounded=0;whiteSpace=wrap;html=1;" vertex="1" parent="MQWxd4llmsT6GIJLcgqH-2">
          <mxGeometry x="210" y="460" width="180" height="70" as="geometry" />
        </mxCell>
        <mxCell id="MQWxd4llmsT6GIJLcgqH-23" style="edgeStyle=orthogonalEdgeStyle;rounded=0;orthogonalLoop=1;jettySize=auto;html=1;exitX=1;exitY=0.5;exitDx=0;exitDy=0;entryX=1;entryY=0.5;entryDx=0;entryDy=0;" edge="1" parent="MQWxd4llmsT6GIJLcgqH-2" source="MQWxd4llmsT6GIJLcgqH-10" target="MQWxd4llmsT6GIJLcgqH-6">
          <mxGeometry relative="1" as="geometry">
            <Array as="points">
              <mxPoint x="570" y="595" />
              <mxPoint x="570" y="275" />
            </Array>
          </mxGeometry>
        </mxCell>
        <mxCell id="MQWxd4llmsT6GIJLcgqH-10" value="&lt;span style=&quot;font-size: 23px;&quot;&gt;&lt;b&gt;迭代优化&lt;/b&gt;&lt;/span&gt;" style="rounded=0;whiteSpace=wrap;html=1;" vertex="1" parent="MQWxd4llmsT6GIJLcgqH-2">
          <mxGeometry x="220" y="560" width="160" height="70" as="geometry" />
        </mxCell>
        <mxCell id="MQWxd4llmsT6GIJLcgqH-26" style="rounded=0;orthogonalLoop=1;jettySize=auto;html=1;exitX=1;exitY=0.5;exitDx=0;exitDy=0;entryX=0;entryY=0.5;entryDx=0;entryDy=0;" edge="1" parent="1" source="MQWxd4llmsT6GIJLcgqH-20" target="MQWxd4llmsT6GIJLcgqH-2">
          <mxGeometry relative="1" as="geometry" />
        </mxCell>
        <mxCell id="MQWxd4llmsT6GIJLcgqH-20" value="&lt;span style=&quot;font-family: 微软雅黑;&quot;&gt;&lt;b style=&quot;&quot;&gt;&lt;font style=&quot;font-size: 24px;&quot;&gt;获取知识受限&lt;/font&gt;&lt;/b&gt;&lt;/span&gt;" style="rounded=0;whiteSpace=wrap;html=1;" vertex="1" parent="1">
          <mxGeometry x="-160" y="-210" width="160" height="70" as="geometry" />
        </mxCell>
        <mxCell id="MQWxd4llmsT6GIJLcgqH-27" style="edgeStyle=orthogonalEdgeStyle;rounded=0;orthogonalLoop=1;jettySize=auto;html=1;exitX=1;exitY=0.5;exitDx=0;exitDy=0;entryX=0;entryY=0.5;entryDx=0;entryDy=0;" edge="1" parent="1" source="MQWxd4llmsT6GIJLcgqH-21" target="MQWxd4llmsT6GIJLcgqH-2">
          <mxGeometry relative="1" as="geometry" />
        </mxCell>
        <mxCell id="MQWxd4llmsT6GIJLcgqH-21" value="&lt;p class=&quot;MsoNormal&quot;&gt;&lt;span style=&quot;font-family: 微软雅黑;&quot;&gt;&lt;b style=&quot;&quot;&gt;&lt;font style=&quot;font-size: 24px;&quot;&gt;攻击能力有限&lt;/font&gt;&lt;/b&gt;&lt;/span&gt;&lt;/p&gt;" style="rounded=0;whiteSpace=wrap;html=1;" vertex="1" parent="1">
          <mxGeometry x="-160" y="-90" width="160" height="70" as="geometry" />
        </mxCell>
        <mxCell id="MQWxd4llmsT6GIJLcgqH-28" style="rounded=0;orthogonalLoop=1;jettySize=auto;html=1;exitX=1;exitY=0.5;exitDx=0;exitDy=0;" edge="1" parent="1" source="MQWxd4llmsT6GIJLcgqH-22">
          <mxGeometry relative="1" as="geometry">
            <mxPoint x="120" y="-60" as="targetPoint" />
          </mxGeometry>
        </mxCell>
        <mxCell id="MQWxd4llmsT6GIJLcgqH-22" value="&lt;p class=&quot;MsoNormal&quot;&gt;&lt;span style=&quot;font-family: 微软雅黑;&quot;&gt;&lt;b style=&quot;&quot;&gt;&lt;font style=&quot;font-size: 24px;&quot;&gt;攻击行为易察&lt;/font&gt;&lt;/b&gt;&lt;/span&gt;&lt;/p&gt;" style="rounded=0;whiteSpace=wrap;html=1;" vertex="1" parent="1">
          <mxGeometry x="-160" y="30" width="160" height="70" as="geometry" />
        </mxCell>
      </root>
    </mxGraphModel>
  </diagram>
</mxfile>
